<svg width="104" height="40" viewBox="0 0 104 40" fill="none" xmlns="http://www.w3.org/2000/svg">
<mask id="path-1-inside-1_1511_155" fill="white">
<path d="M0 8C0 3.58172 3.58172 0 8 0H96C100.418 0 104 3.58172 104 8V32C104 36.4183 100.418 40 96 40H8C3.58172 40 0 36.4183 0 32V8Z"/>
</mask>
<path d="M0 8C0 3.58172 3.58172 0 8 0H96C100.418 0 104 3.58172 104 8V32C104 36.4183 100.418 40 96 40H8C3.58172 40 0 36.4183 0 32V8Z" fill="#14AE5C"/>
<path d="M8 0V1H96V0V-1H8V0ZM104 8H103V32H104H105V8H104ZM96 40V39H8V40V41H96V40ZM0 32H1V8H0H-1V32H0ZM8 40V39C4.13401 39 1 35.866 1 32H0H-1C-1 36.9706 3.02944 41 8 41V40ZM104 32H103C103 35.866 99.866 39 96 39V40V41C100.971 41 105 36.9706 105 32H104ZM96 0V1C99.866 1 103 4.13401 103 8H104H105C105 3.02944 100.971 -1 96 -1V0ZM8 0V-1C3.02944 -1 -1 3.02944 -1 8H0H1C1 4.13401 4.13401 1 8 1V0Z" fill="#2C2C2C" mask="url(#path-1-inside-1_1511_155)"/>
<path d="M15.248 14.304C15.4827 14.3253 15.7173 14.3467 15.952 14.368C16.1973 14.3893 16.448 14.4 16.704 14.4C16.8853 14.4 17.1627 14.4 17.536 14.4C17.9093 14.4 18.3253 14.4 18.784 14.4C19.2533 14.4 19.7173 14.4 20.176 14.4C20.6347 14.4 21.0453 14.4 21.408 14.4C21.7813 14.4 22.0587 14.4 22.24 14.4C22.464 14.4 22.7093 14.3947 22.976 14.384C23.2533 14.3627 23.504 14.336 23.728 14.304V15.632C23.4933 15.6107 23.2427 15.6 22.976 15.6C22.72 15.5893 22.4747 15.584 22.24 15.584C22.0587 15.584 21.7813 15.584 21.408 15.584C21.0453 15.584 20.6347 15.584 20.176 15.584C19.7173 15.584 19.2587 15.584 18.8 15.584C18.3413 15.584 17.9253 15.584 17.552 15.584C17.1787 15.584 16.9013 15.584 16.72 15.584C16.4533 15.584 16.192 15.5893 15.936 15.6C15.6907 15.6 15.4613 15.6107 15.248 15.632V14.304ZM13.36 18.32C13.5733 18.3413 13.792 18.3627 14.016 18.384C14.2507 18.3947 14.4907 18.4 14.736 18.4C14.8747 18.4 15.1467 18.4 15.552 18.4C15.968 18.4 16.4693 18.4 17.056 18.4C17.6533 18.4 18.2933 18.4 18.976 18.4C19.6587 18.4 20.3413 18.4 21.024 18.4C21.7067 18.4 22.3413 18.4 22.928 18.4C23.5253 18.4 24.0267 18.4 24.432 18.4C24.8373 18.4 25.0987 18.4 25.216 18.4C25.3867 18.4 25.5893 18.3947 25.824 18.384C26.0587 18.3733 26.272 18.352 26.464 18.32V19.648C26.2933 19.6373 26.0907 19.632 25.856 19.632C25.632 19.6213 25.4187 19.616 25.216 19.616C25.0987 19.616 24.8373 19.616 24.432 19.616C24.0267 19.616 23.5253 19.616 22.928 19.616C22.3413 19.616 21.7067 19.616 21.024 19.616C20.3413 19.616 19.6587 19.616 18.976 19.616C18.2933 19.616 17.6533 19.616 17.056 19.616C16.4693 19.616 15.968 19.616 15.552 19.616C15.1467 19.616 14.8747 19.616 14.736 19.616C14.5013 19.616 14.2667 19.616 14.032 19.616C13.7973 19.616 13.5733 19.6267 13.36 19.648V18.32ZM20.88 18.976C20.88 19.9787 20.8053 20.9013 20.656 21.744C20.5173 22.576 20.272 23.328 19.92 24C19.728 24.352 19.4667 24.7093 19.136 25.072C18.816 25.424 18.4533 25.76 18.048 26.08C17.6533 26.4 17.2267 26.6773 16.768 26.912L15.584 26.032C16.2027 25.776 16.784 25.4293 17.328 24.992C17.872 24.5547 18.2987 24.0853 18.608 23.584C19.0133 22.944 19.2693 22.24 19.376 21.472C19.4827 20.6933 19.536 19.8613 19.536 18.976H20.88ZM24.56 13.008C24.6987 13.1893 24.848 13.4133 25.008 13.68C25.168 13.936 25.3227 14.1973 25.472 14.464C25.632 14.7307 25.7653 14.976 25.872 15.2L25.008 15.584C24.848 15.2533 24.6453 14.88 24.4 14.464C24.1547 14.0373 23.9253 13.6693 23.712 13.36L24.56 13.008ZM26.32 12.368C26.4587 12.56 26.6133 12.7893 26.784 13.056C26.9547 13.3227 27.12 13.5893 27.28 13.856C27.44 14.112 27.568 14.3413 27.664 14.544L26.8 14.928C26.6293 14.576 26.4213 14.1973 26.176 13.792C25.9413 13.376 25.7067 13.0187 25.472 12.72L26.32 12.368ZM30.896 14.64C31.1093 14.6507 31.3333 14.6667 31.568 14.688C31.8133 14.6987 32.0693 14.704 32.336 14.704C32.528 14.704 32.816 14.704 33.2 14.704C33.5947 14.704 34.0427 14.704 34.544 14.704C35.056 14.704 35.584 14.704 36.128 14.704C36.672 14.704 37.2 14.704 37.712 14.704C38.224 14.704 38.6773 14.704 39.072 14.704C39.4667 14.704 39.76 14.704 39.952 14.704C40.208 14.704 40.4427 14.6987 40.656 14.688C40.88 14.6667 41.0827 14.6507 41.264 14.64V15.92C41.072 15.9093 40.8747 15.904 40.672 15.904C40.4693 15.8933 40.2293 15.888 39.952 15.888C39.76 15.888 39.456 15.888 39.04 15.888C38.6347 15.888 38.1653 15.888 37.632 15.888C37.1093 15.888 36.5653 15.888 36 15.888C35.4453 15.888 34.9173 15.888 34.416 15.888C33.9147 15.888 33.4773 15.888 33.104 15.888C32.7307 15.888 32.4747 15.888 32.336 15.888C32.0693 15.888 31.8133 15.8933 31.568 15.904C31.3333 15.904 31.1093 15.9093 30.896 15.92V14.64ZM35.792 19.776C35.792 20.0747 35.792 20.4213 35.792 20.816C35.792 21.2 35.792 21.584 35.792 21.968C35.792 22.352 35.792 22.6987 35.792 23.008C35.792 23.3067 35.792 23.5307 35.792 23.68C35.792 24.0747 35.9467 24.3893 36.256 24.624C36.5653 24.848 37.088 24.96 37.824 24.96C38.5813 24.96 39.296 24.944 39.968 24.912C40.6507 24.88 41.3387 24.8213 42.032 24.736L41.952 26.08C41.536 26.1013 41.0933 26.1227 40.624 26.144C40.1547 26.176 39.6693 26.1973 39.168 26.208C38.6667 26.2293 38.16 26.24 37.648 26.24C36.848 26.24 36.2133 26.1547 35.744 25.984C35.2747 25.8027 34.944 25.552 34.752 25.232C34.56 24.9013 34.464 24.5173 34.464 24.08C34.464 23.792 34.464 23.4667 34.464 23.104C34.464 22.7307 34.464 22.3467 34.464 21.952C34.464 21.5467 34.464 21.1573 34.464 20.784C34.464 20.4 34.464 20.048 34.464 19.728C34.464 19.6 34.464 19.3973 34.464 19.12C34.464 18.832 34.464 18.512 34.464 18.16C34.464 17.7973 34.464 17.44 34.464 17.088C34.464 16.736 34.464 16.4213 34.464 16.144C34.464 15.856 34.464 15.6427 34.464 15.504L35.792 15.52C35.792 15.648 35.792 15.8613 35.792 16.16C35.792 16.4587 35.792 16.7947 35.792 17.168C35.792 17.5413 35.792 17.9093 35.792 18.272C35.792 18.6347 35.792 18.9547 35.792 19.232C35.792 19.5093 35.792 19.6907 35.792 19.776ZM29.84 19.184C30.064 19.1947 30.3147 19.2107 30.592 19.232C30.88 19.2533 31.1307 19.264 31.344 19.264C31.5147 19.264 31.7973 19.264 32.192 19.264C32.5973 19.264 33.072 19.264 33.616 19.264C34.1707 19.264 34.7573 19.264 35.376 19.264C36.0053 19.264 36.6293 19.264 37.248 19.264C37.8773 19.264 38.464 19.264 39.008 19.264C39.552 19.264 40.0107 19.264 40.384 19.264C40.768 19.264 41.0347 19.264 41.184 19.264C41.3013 19.264 41.44 19.2587 41.6 19.248C41.76 19.2373 41.92 19.232 42.08 19.232C42.2507 19.2213 42.3947 19.2107 42.512 19.2V20.512C42.3307 20.4907 42.112 20.48 41.856 20.48C41.6107 20.4693 41.3973 20.464 41.216 20.464C41.056 20.464 40.784 20.464 40.4 20.464C40.016 20.464 39.552 20.464 39.008 20.464C38.464 20.464 37.8773 20.464 37.248 20.464C36.6293 20.464 36.0053 20.464 35.376 20.464C34.7467 20.464 34.16 20.464 33.616 20.464C33.072 20.464 32.5973 20.464 32.192 20.464C31.7973 20.464 31.5147 20.464 31.344 20.464C31.152 20.464 30.9067 20.4693 30.608 20.48C30.32 20.4907 30.064 20.5067 29.84 20.528V19.184ZM56.032 13.36C56.2347 13.6373 56.4587 13.984 56.704 14.4C56.9493 14.8053 57.152 15.1733 57.312 15.504L56.448 15.888C56.288 15.5573 56.0907 15.1893 55.856 14.784C55.6213 14.3787 55.3973 14.0213 55.184 13.712L56.032 13.36ZM57.92 12.896C58.0587 13.0987 58.208 13.328 58.368 13.584C58.5387 13.84 58.6987 14.096 58.848 14.352C59.008 14.5973 59.136 14.8213 59.232 15.024L58.368 15.408C58.1973 15.056 57.9947 14.688 57.76 14.304C57.5253 13.9093 57.296 13.5627 57.072 13.264L57.92 12.896ZM52.672 13.664C52.6613 13.7387 52.6453 13.8453 52.624 13.984C52.6133 14.1227 52.6027 14.2667 52.592 14.416C52.5813 14.5653 52.576 14.6987 52.576 14.816C52.576 15.0933 52.576 15.4133 52.576 15.776C52.576 16.1387 52.576 16.496 52.576 16.848C52.576 17.2 52.576 17.5093 52.576 17.776C52.576 17.9893 52.576 18.2987 52.576 18.704C52.576 19.1093 52.576 19.568 52.576 20.08C52.576 20.592 52.576 21.12 52.576 21.664C52.576 22.1973 52.576 22.7147 52.576 23.216C52.576 23.7173 52.576 24.16 52.576 24.544C52.576 24.928 52.576 25.216 52.576 25.408C52.576 25.8347 52.4693 26.1547 52.256 26.368C52.0427 26.5813 51.6907 26.688 51.2 26.688C50.976 26.688 50.7253 26.6827 50.448 26.672C50.1813 26.6613 49.9147 26.6453 49.648 26.624C49.3813 26.6027 49.1413 26.5867 48.928 26.576L48.816 25.296C49.168 25.36 49.5093 25.408 49.84 25.44C50.1707 25.472 50.4427 25.488 50.656 25.488C50.8693 25.488 51.024 25.44 51.12 25.344C51.216 25.2373 51.2693 25.0827 51.28 24.88C51.28 24.7307 51.28 24.4747 51.28 24.112C51.28 23.7387 51.28 23.312 51.28 22.832C51.28 22.3413 51.28 21.8293 51.28 21.296C51.28 20.752 51.28 20.24 51.28 19.76C51.28 19.2693 51.28 18.848 51.28 18.496C51.28 18.144 51.28 17.904 51.28 17.776C51.28 17.5947 51.28 17.3227 51.28 16.96C51.28 16.5973 51.28 16.2187 51.28 15.824C51.28 15.4187 51.28 15.0773 51.28 14.8C51.28 14.6293 51.264 14.4267 51.232 14.192C51.2107 13.9573 51.1893 13.7813 51.168 13.664H52.672ZM45.472 16.368C45.696 16.3893 45.9147 16.4107 46.128 16.432C46.3413 16.4427 46.576 16.448 46.832 16.448C46.96 16.448 47.2213 16.448 47.616 16.448C48.0107 16.448 48.4853 16.448 49.04 16.448C49.6053 16.448 50.208 16.448 50.848 16.448C51.488 16.448 52.128 16.448 52.768 16.448C53.4187 16.448 54.0213 16.448 54.576 16.448C55.1413 16.448 55.616 16.448 56 16.448C56.3947 16.448 56.6613 16.448 56.8 16.448C56.992 16.448 57.2053 16.4427 57.44 16.432C57.6853 16.4107 57.9093 16.3893 58.112 16.368V17.696C57.8987 17.6853 57.6747 17.68 57.44 17.68C57.216 17.6693 57.008 17.664 56.816 17.664C56.6773 17.664 56.4107 17.664 56.016 17.664C55.632 17.664 55.1573 17.664 54.592 17.664C54.0373 17.664 53.44 17.664 52.8 17.664C52.16 17.664 51.52 17.664 50.88 17.664C50.24 17.664 49.6373 17.664 49.072 17.664C48.5067 17.664 48.0267 17.664 47.632 17.664C47.248 17.664 46.9813 17.664 46.832 17.664C46.5973 17.664 46.3627 17.6693 46.128 17.68C45.904 17.68 45.6853 17.6907 45.472 17.712V16.368ZM49.152 20.128C48.9813 20.4693 48.768 20.8427 48.512 21.248C48.2667 21.6533 47.9947 22.064 47.696 22.48C47.408 22.8853 47.12 23.264 46.832 23.616C46.5547 23.968 46.304 24.2667 46.08 24.512L44.976 23.776C45.2427 23.5307 45.52 23.2373 45.808 22.896C46.096 22.544 46.3787 22.176 46.656 21.792C46.944 21.408 47.2053 21.0293 47.44 20.656C47.6747 20.272 47.872 19.9147 48.032 19.584L49.152 20.128ZM55.84 19.6C56.0533 19.856 56.2827 20.16 56.528 20.512C56.784 20.864 57.04 21.2427 57.296 21.648C57.5627 22.0427 57.808 22.4267 58.032 22.8C58.256 23.1627 58.448 23.488 58.608 23.776L57.424 24.432C57.2747 24.112 57.088 23.76 56.864 23.376C56.6507 22.992 56.4213 22.6027 56.176 22.208C55.9307 21.8133 55.68 21.44 55.424 21.088C55.1787 20.736 54.9547 20.432 54.752 20.176L55.84 19.6ZM66.64 18.672C67.152 18.9707 67.6907 19.3013 68.256 19.664C68.8213 20.0267 69.3813 20.4053 69.936 20.8C70.5013 21.184 71.04 21.5627 71.552 21.936C72.064 22.3093 72.5173 22.6613 72.912 22.992L71.968 24.096C71.6053 23.7653 71.168 23.4027 70.656 23.008C70.1547 22.6027 69.6213 22.1973 69.056 21.792C68.4907 21.376 67.9253 20.976 67.36 20.592C66.7947 20.208 66.2667 19.8613 65.776 19.552L66.64 18.672ZM73.968 15.744C73.8933 15.8613 73.824 16.0053 73.76 16.176C73.696 16.336 73.6373 16.48 73.584 16.608C73.4347 17.152 73.2213 17.7387 72.944 18.368C72.6667 18.9973 72.3413 19.632 71.968 20.272C71.5947 20.9013 71.168 21.5093 70.688 22.096C69.9733 22.9813 69.0773 23.8347 68 24.656C66.9333 25.4667 65.6427 26.1493 64.128 26.704L62.976 25.712C63.968 25.4027 64.8693 25.024 65.68 24.576C66.5013 24.1173 67.2373 23.616 67.888 23.072C68.5387 22.528 69.104 21.968 69.584 21.392C70 20.9013 70.3787 20.3627 70.72 19.776C71.072 19.1893 71.376 18.608 71.632 18.032C71.888 17.4453 72.0747 16.9013 72.192 16.4H66.256L66.768 15.264H71.856C72.0693 15.264 72.2667 15.2533 72.448 15.232C72.6293 15.2 72.784 15.1573 72.912 15.104L73.968 15.744ZM68.576 13.44C68.4373 13.6533 68.304 13.8773 68.176 14.112C68.048 14.3467 67.9413 14.5387 67.856 14.688C67.536 15.2747 67.12 15.92 66.608 16.624C66.1067 17.3173 65.5147 18.0107 64.832 18.704C64.16 19.3973 63.3973 20.0427 62.544 20.64L61.472 19.808C62.3893 19.2427 63.184 18.6187 63.856 17.936C64.528 17.2533 65.0933 16.5867 65.552 15.936C66.0107 15.2853 66.3627 14.72 66.608 14.24C66.6933 14.1013 66.7893 13.9093 66.896 13.664C67.0027 13.408 67.0773 13.1787 67.12 12.976L68.576 13.44ZM79.632 14.272C79.92 14.464 80.2507 14.704 80.624 14.992C80.9973 15.2693 81.376 15.568 81.76 15.888C82.1547 16.1973 82.5227 16.5013 82.864 16.8C83.2053 17.0987 83.488 17.36 83.712 17.584L82.704 18.592C82.5013 18.3893 82.24 18.1387 81.92 17.84C81.6 17.5413 81.248 17.232 80.864 16.912C80.48 16.5813 80.1013 16.272 79.728 15.984C79.3547 15.6853 79.0187 15.44 78.72 15.248L79.632 14.272ZM78.256 24.992C79.1947 24.8533 80.048 24.6613 80.816 24.416C81.5947 24.1707 82.304 23.8933 82.944 23.584C83.584 23.2747 84.1547 22.9653 84.656 22.656C85.4773 22.144 86.2347 21.5573 86.928 20.896C87.6213 20.224 88.2293 19.5307 88.752 18.816C89.2747 18.1013 89.6907 17.4187 90 16.768L90.768 18.128C90.4053 18.7893 89.9573 19.4613 89.424 20.144C88.8907 20.8267 88.288 21.4827 87.616 22.112C86.944 22.7413 86.2027 23.312 85.392 23.824C84.8587 24.1547 84.272 24.48 83.632 24.8C83.0027 25.12 82.3093 25.4133 81.552 25.68C80.8053 25.936 79.9893 26.144 79.104 26.304L78.256 24.992Z" fill="#0C0C0D"/>
</svg>
